<svg width="41" height="19" viewBox="0 0 41 19" fill="none" xmlns="http://www.w3.org/2000/svg">
<path d="M0.0652792 5.64714L3.61072 11.6428C4.93546 13.8839 6.82036 15.7409 9.07982 17.031C11.3393 18.3211 13.8954 18.9997 16.4964 19H24.117C26.5236 19 28.8947 18.4193 31.0295 17.307C33.1644 16.1948 35 14.5837 36.3809 12.6104L40.9135 6.13424C40.9679 6.0563 40.998 5.96389 40.9999 5.86878C41.0018 5.77367 40.9754 5.68015 40.924 5.60011C40.8727 5.52007 40.7987 5.45713 40.7115 5.41929C40.6244 5.38145 40.5279 5.37042 40.4345 5.38761L28.7763 7.52783C28.3038 7.61429 27.8167 7.56996 27.3675 7.39961C26.9183 7.22926 26.5241 6.93935 26.2274 6.56115L21.3746 0.400032C21.276 0.274872 21.1503 0.173812 21.0069 0.104505C20.8636 0.0351978 20.7064 -0.000537548 20.5472 6.1114e-06C20.388 0.000549771 20.231 0.0373583 20.0881 0.107643C19.9453 0.177927 19.8202 0.279843 19.7225 0.405674L16.6232 5.11397C16.315 5.53571 16.1198 6.02938 16.056 6.54801C15.9922 7.06665 16.062 7.59299 16.2588 8.07699L17.676 13.8178C17.7352 13.9635 17.722 14.6519 17.4938 14.7685C17.2177 14.9095 16.7049 14.4563 16.6326 14.3293L13.7436 8.9863C13.5345 8.61548 13.2504 8.29241 12.9095 8.03773C12.5686 7.78304 12.1784 7.60233 11.7638 7.50714L0.578076 4.93624C0.487338 4.91703 0.392982 4.92461 0.306463 4.95806C0.219943 4.9915 0.144983 5.04938 0.0906822 5.12466C0.0363812 5.19993 0.00507583 5.28938 0.00056663 5.38212C-0.00394257 5.47487 0.0185374 5.56694 0.0652792 5.64714Z" fill="white"/>
</svg>
